<?xml version="1.0" encoding="utf-8"?>
<!-- Generator: Adobe Illustrator 16.0.0, SVG Export Plug-In . SVG Version: 6.00 Build 0)  -->
<!DOCTYPE svg PUBLIC "-//W3C//DTD SVG 1.1//EN" "http://www.w3.org/Graphics/SVG/1.1/DTD/svg11.dtd">
<svg version="1.1" id="Layer_1" xmlns="http://www.w3.org/2000/svg" xmlns:xlink="http://www.w3.org/1999/xlink" x="0px" y="0px"
	 width="16px" height="17px" viewBox="0 0 16 17" enable-background="new 0 0 16 17" xml:space="preserve">
<title>7B74AE53-DF2E-4D14-A854-B78571BEB245</title>
<desc>Created with sketchtool.</desc>
<g>
	<path fill="#BBBBBB" d="M14.73,12.206c-0.002-0.002-0.008-0.004-0.011-0.005c-0.212-0.088-2.089-0.92-2.108-3.189
		c-0.02-1.843,1.406-2.819,1.693-2.996l0.013-0.008c0.03-0.021,0.053-0.052,0.06-0.088c0.008-0.037,0-0.074-0.021-0.104
		c-0.983-1.44-2.492-1.656-3.1-1.684c-0.089-0.009-0.18-0.013-0.271-0.013c-0.714,0-1.397,0.269-1.946,0.485
		C8.66,4.755,8.334,4.883,8.107,4.883c-0.254,0-0.583-0.13-0.964-0.282C6.633,4.399,6.056,4.17,5.444,4.17
		c-0.014,0-0.028,0-0.042,0.001C3.978,4.191,2.635,5.005,1.894,6.293c-1.409,2.445-0.513,6.156,1.045,8.405
		c0.777,1.124,1.565,2.134,2.643,2.134c0.021,0,0.04,0,0.062,0c0.506-0.021,0.872-0.178,1.226-0.328
		c0.398-0.168,0.809-0.344,1.454-0.344c0.612,0,1.005,0.168,1.385,0.334c0.371,0.16,0.756,0.328,1.324,0.316
		c1.215-0.022,1.96-1.112,2.618-2.073c0.687-1.004,1.03-1.978,1.146-2.351l0.005-0.014C14.824,12.307,14.794,12.234,14.73,12.206z"
		/>
	<path fill="#BBBBBB" d="M7.967,4.217c0.057,0.004,0.118,0.007,0.177,0.007c0.842,0,1.751-0.465,2.37-1.215
		c0.653-0.793,0.984-1.81,0.884-2.72c-0.008-0.071-0.07-0.125-0.142-0.122c-0.861,0.035-1.894,0.565-2.513,1.289
		C8.22,2.064,7.708,3.078,7.842,4.1C7.851,4.163,7.903,4.213,7.967,4.217z"/>
</g>
</svg>
