<?xml version="1.0" encoding="utf-8"?>
<!-- Generator: Adobe Illustrator 24.0.2, SVG Export Plug-In . SVG Version: 6.00 Build 0)  -->
<svg version="1.1" id="Layer_1" xmlns="http://www.w3.org/2000/svg" xmlns:xlink="http://www.w3.org/1999/xlink" x="0px" y="0px"
	 viewBox="0 0 16 17" style="enable-background:new 0 0 16 17;" xml:space="preserve">
<style type="text/css">
	.st0{fill:#FFFFFF;}
</style>
<title>7B74AE53-DF2E-4D14-A854-B78571BEB245</title>
<desc>Created with sketchtool.</desc>
<g>
	<path class="st0" d="M3.3,13.8h0.2c0.3,0,0.6-0.3,0.6-0.6V9.3c0-0.3-0.3-0.6-0.6-0.6H2.9C2.9,6,5.2,3.7,8,3.7s5.1,2.3,5.1,5.1h-0.6
		c-0.3,0-0.6,0.3-0.6,0.6v3.9c0,0.3,0.3,0.6,0.6,0.6h1c1.3,0,2.4-1.1,2.4-2.4v-0.3c0-1.3-1-2.3-2.2-2.4l0,0c0-3.1-2.5-5.6-5.6-5.6
		c-3.1,0-5.6,2.5-5.6,5.6v0c-1.3,0.1-2.2,1.1-2.2,2.4v0.3c0,1.3,1.1,2.4,2.4,2.4h0.1 M3.5,9.3v3.9h-1c-1,0-1.8-0.8-1.8-1.8v-0.3
		c0-1,0.8-1.8,1.8-1.8C2.5,9.3,3.5,9.3,3.5,9.3z M15.3,11.5c0,1-0.8,1.8-1.8,1.8h-1V9.3h1c1,0,1.8,0.8,1.8,1.8V11.5z"/>
</g>
</svg>
