<?xml version="1.0" encoding="utf-8"?>
<!-- Generator: Adobe Illustrator 16.0.0, SVG Export Plug-In . SVG Version: 6.00 Build 0)  -->
<!DOCTYPE svg PUBLIC "-//W3C//DTD SVG 1.1//EN" "http://www.w3.org/Graphics/SVG/1.1/DTD/svg11.dtd">
<svg version="1.1" id="Layer_1" xmlns="http://www.w3.org/2000/svg" xmlns:xlink="http://www.w3.org/1999/xlink" x="0px" y="0px"
	 width="16px" height="17px" viewBox="0 0 16 17" enable-background="new 0 0 16 17" xml:space="preserve">
<title>7B74AE53-DF2E-4D14-A854-B78571BEB245</title>
<desc>Created with sketchtool.</desc>
<g>
	<path fill="#BBBBBB" d="M12.145,0.101H3.399c-0.436,0-0.789,0.354-0.789,0.79v15.219c0,0.435,0.354,0.79,0.789,0.79h8.745
		c0.436,0,0.789-0.355,0.789-0.79V0.89C12.934,0.455,12.58,0.101,12.145,0.101z M12.442,16.109c0,0.164-0.134,0.299-0.298,0.299
		H3.399c-0.164,0-0.298-0.135-0.298-0.299V0.89c0-0.165,0.134-0.298,0.298-0.298h8.745c0.164,0,0.298,0.134,0.298,0.298V16.109z"/>
	<path fill="#BBBBBB" d="M7.814,14.031H7.729c-0.494,0-0.895,0.4-0.895,0.895v0.086c0,0.494,0.401,0.895,0.895,0.895h0.085
		c0.494,0,0.895-0.4,0.895-0.895v-0.086C8.709,14.432,8.309,14.031,7.814,14.031z"/>
	<path fill="#BBBBBB" d="M10.122,1.108H5.421c-0.138,0-0.251,0.113-0.251,0.251c0,0.139,0.113,0.251,0.251,0.251h4.701
		c0.14,0,0.251-0.112,0.251-0.251C10.373,1.221,10.262,1.108,10.122,1.108z"/>
</g>
</svg>
