<?xml version="1.0" encoding="utf-8"?>
<!-- Generator: Adobe Illustrator 16.0.0, SVG Export Plug-In . SVG Version: 6.00 Build 0)  -->
<!DOCTYPE svg PUBLIC "-//W3C//DTD SVG 1.1//EN" "http://www.w3.org/Graphics/SVG/1.1/DTD/svg11.dtd">
<svg version="1.1" id="Layer_1" xmlns="http://www.w3.org/2000/svg" xmlns:xlink="http://www.w3.org/1999/xlink" x="0px" y="0px"
	 width="16px" height="17px" viewBox="0 0 16 17" enable-background="new 0 0 16 17" xml:space="preserve">
<title>7B74AE53-DF2E-4D14-A854-B78571BEB245</title>
<desc>Created with sketchtool.</desc>
<g>
	<path fill="#BBBBBB" d="M13.801,0.101H2.199c-0.436,0-0.788,0.354-0.788,0.79v15.218c0,0.436,0.354,0.791,0.788,0.791h11.602
		c0.436,0,0.789-0.355,0.789-0.791V0.89C14.59,0.455,14.236,0.101,13.801,0.101z M14.098,16.109c0,0.164-0.133,0.299-0.297,0.299
		H2.199c-0.163,0-0.298-0.135-0.298-0.299V0.89c0-0.165,0.135-0.298,0.298-0.298h11.602c0.164,0,0.297,0.134,0.297,0.298V16.109z"/>
	<path fill="#BBBBBB" d="M8.043,14.031H7.958c-0.494,0-0.896,0.4-0.896,0.895v0.086c0,0.494,0.401,0.895,0.896,0.895h0.085
		c0.494,0,0.895-0.398,0.895-0.895v-0.086C8.938,14.432,8.538,14.031,8.043,14.031z"/>
	<path fill="#BBBBBB" d="M8.014,1.062H7.987c-0.154,0-0.28,0.125-0.28,0.279v0.027c0,0.154,0.125,0.279,0.28,0.279h0.027
		c0.154,0,0.279-0.125,0.279-0.279V1.342C8.293,1.188,8.168,1.062,8.014,1.062z"/>
</g>
</svg>
