<?xml version="1.0" encoding="utf-8"?>
<!-- Generator: Adobe Illustrator 24.0.2, SVG Export Plug-In . SVG Version: 6.00 Build 0)  -->
<svg version="1.1" id="Layer_1" xmlns="http://www.w3.org/2000/svg" xmlns:xlink="http://www.w3.org/1999/xlink" x="0px" y="0px"
	 viewBox="0 0 512 512" style="enable-background:new 0 0 512 512;" xml:space="preserve">
<style type="text/css">
	.st0{fill:#FFFFFF;}
</style>
<path class="st0" d="M486,19H96.8c-3.9,0-7,3.1-7,7v63.8H26c-3.9,0-7,3.1-7,7v353.8C19,474,38,493,61.4,493h389.2
	c23.4,0,42.4-19,42.4-42.4V26C493,22.1,489.9,19,486,19L486,19L486,19z M61.4,479C45.7,479,33,466.3,33,450.6V103.8h375.2v346.8
	c0,10.5,3.9,20.6,10.9,28.4L61.4,479z M479,450.6c-0.5,15.7-13.7,28-29.3,27.4c-14.9-0.5-26.9-12.5-27.4-27.4V96.8c0-3.9-3.1-7-7-7
	H103.8V33H479V450.6z"/>
<path class="st0" d="M77.5,167.6l30.9,37.9h8.6v-56h-10.3v37.9l-30.9-37.9h-8.6v56h10.3V167.6z"/>
<path class="st0" d="M178,196.8h-31.6v-15.4h27v-8.6h-27v-14.6h30.5v-8.7H136v56h42V196.8z"/>
<path class="st0" d="M217.1,205.6l14.1-41.4l13.8,41.4h11l18.6-56h-9.9l-14.3,42.8l-14.2-42.8h-9.6l-14.5,42.6l-13.9-42.6h-10.8
	l18.6,56H217.1z"/>
<path class="st0" d="M313.8,195.7c-2.9,1.5-6.1,2.2-9.3,2c-3.4,0-6.8-0.6-10-1.7c-3-1-5.9-2.5-8.4-4.4l-3.6,8.1
	c2.8,2.3,6.1,3.9,9.6,4.9c4.1,1.2,8.3,1.9,12.5,1.8c4.3,0.1,8.5-0.6,12.5-2.2c3.1-1.2,5.7-3.3,7.6-6c1.7-2.5,2.6-5.4,2.5-8.4
	c0.2-3.1-0.8-6.2-2.8-8.6c-1.9-2.1-4.2-3.7-6.8-4.8c-3.3-1.2-6.8-2.2-10.2-3c-3-0.7-5.4-1.4-7.2-2c-1.6-0.5-3.1-1.3-4.4-2.4
	c-1.1-1-1.8-2.4-1.7-3.9c0-2.2,1.1-4.3,3-5.5c2.8-1.6,6-2.3,9.2-2.1c2.6,0,5.2,0.4,7.8,1.1c2.7,0.8,5.3,1.9,7.7,3.3l3.3-8.1
	c-2.6-1.7-5.5-2.9-8.6-3.7c-3.3-0.9-6.7-1.3-10.1-1.3c-4.3-0.1-8.5,0.6-12.4,2.2c-3.1,1.2-5.7,3.3-7.6,6c-1.7,2.5-2.5,5.4-2.5,8.4
	c-0.2,3.2,0.8,6.3,2.8,8.8c1.8,2.1,4.2,3.8,6.8,4.8c3.4,1.2,6.8,2.2,10.4,3c3,0.7,5.4,1.4,7.2,2c1.6,0.5,3.1,1.3,4.4,2.4
	c1.1,1,1.8,2.4,1.7,4C316.9,192.6,315.7,194.6,313.8,195.7L313.8,195.7z"/>
<path class="st0" d="M371.2,249.8H70c-3.9,0-7,3.1-7,7c0,3.9,3.1,7,7,7h301.2c3.9,0,7-3.1,7-7S375.1,249.8,371.2,249.8z"/>
<path class="st0" d="M371.2,307.6H70c-3.9,0-7,3.1-7,7s3.1,7,7,7h301.2c3.9,0,7-3.1,7-7S375.1,307.6,371.2,307.6z"/>
<path class="st0" d="M371.2,423.2H70c-3.9,0-7,3.1-7,7s3.1,7,7,7h301.2c3.9,0,7-3.1,7-7S375.1,423.2,371.2,423.2z"/>
<path class="st0" d="M371.2,365.4H70c-3.9,0-7,3.1-7,7s3.1,7,7,7h301.2c3.9,0,7-3.1,7-7S375.1,365.4,371.2,365.4z"/>
</svg>
