<?xml version="1.0" encoding="utf-8"?>
<!-- Generator: Adobe Illustrator 24.0.2, SVG Export Plug-In . SVG Version: 6.00 Build 0)  -->
<svg version="1.1" id="Layer_1" xmlns="http://www.w3.org/2000/svg" xmlns:xlink="http://www.w3.org/1999/xlink" x="0px" y="0px"
	 viewBox="0 0 512 512" style="enable-background:new 0 0 512 512;" xml:space="preserve">
<style type="text/css">
	.st0{fill:#FFFFFF;}
</style>
<path class="st0" d="M340.4,503.5c0,4.7-3.8,8.5-8.5,8.5H50.2c-25,0-44.7-21.5-42.5-46.4l26-294.4c2-22.2,20.2-38.9,42.5-38.9h26.3
	V88.5C102.5,39.7,142.2,0,191,0s88.5,39.7,88.5,88.5v43.7h26.3c4.7,0,8.5,3.8,8.5,8.5s-3.8,8.5-8.5,8.5h-26.3v38.4
	c0,4.7-3.8,8.5-8.5,8.5s-8.5-3.8-8.5-8.5v-38.4h-112c-4.7,0-8.5-3.8-8.5-8.5s3.8-8.5,8.5-8.5h112V88.5c0-39.4-32.1-71.5-71.5-71.5
	s-71.5,32.1-71.5,71.5v99.2c0,4.7-3.8,8.5-8.5,8.5s-8.5-3.8-8.5-8.5v-38.4H76.2c-13.4,0-24.3,10-25.5,23.4l-26,294.4
	c-1.3,15,10.5,27.8,25.5,27.8h281.7C336.6,494.9,340.4,498.8,340.4,503.5z M494.9,350.1l-28.3,22.8l3.9,36.2
	c1.8,16.3-12,30-28.2,28.2l-36.2-3.9l-22.8,28.4c-10.3,12.8-29.7,12.7-39.9,0l-22.8-28.4l-36.2,3.9c-16.3,1.8-30-12-28.2-28.2
	l3.9-36.2l-28.4-22.8c-12.8-10.3-12.7-29.7,0-39.9l28.3-22.8l-3.9-36.2c-1.8-16.3,12-30,28.2-28.2l36.2,3.9l22.8-28.4
	c10.3-12.8,29.7-12.7,39.9,0l22.8,28.4l36.2-3.9c16.2-1.8,30,11.9,28.2,28.2l-3.9,36.2l28.4,22.8l0,0
	C507.7,320.5,507.7,339.9,494.9,350.1L494.9,350.1z M484.2,323.5l-32-25.7c-2.3-1.8-3.5-4.7-3.1-7.6l4.4-40.8c0.6-5.4-4-10-9.4-9.4
	l-40.8,4.4c-2.9,0.3-5.7-0.9-7.6-3.1l-25.7-32c-3.4-4.3-9.9-4.2-13.3,0l-25.7,32c-1.8,2.3-4.7,3.5-7.6,3.1l-40.8-4.4
	c-5.4-0.6-10,4-9.4,9.4l4.4,40.8c0.3,2.9-0.9,5.8-3.1,7.6l-32,25.7c-4.3,3.4-4.2,9.9,0,13.3l32,25.7c2.3,1.8,3.5,4.7,3.1,7.6
	l-4.4,40.8c-0.6,5.4,4,10,9.4,9.4l40.8-4.4c2.9-0.3,5.7,0.8,7.6,3.1l25.7,32c3.4,4.3,9.9,4.2,13.3,0l25.7-32
	c1.8-2.3,4.7-3.5,7.6-3.1l40.8,4.4c5.4,0.6,10-4,9.4-9.4l-4.4-40.8c-0.3-2.9,0.9-5.8,3.1-7.6l32-25.7
	C488.5,333.4,488.5,326.9,484.2,323.5L484.2,323.5z M399.7,294.8c-3.3-3.3-8.7-3.3-12.1,0l-64,64c-3.3,3.3-3.3,8.7,0,12.1
	c3.3,3.3,8.7,3.3,12.1,0l64-64C403.1,303.5,403.1,298.1,399.7,294.8z M410.8,362.7c0,8.2-6.7,14.9-14.9,14.9
	c-8.2,0-14.9-6.7-14.9-14.9s6.7-14.9,14.9-14.9C404.1,347.7,410.8,354.4,410.8,362.7z M398,362.7c0-1.2-1-2.1-2.1-2.1
	c-1.2,0-2.1,1-2.1,2.1s1,2.1,2.1,2.1C397,364.8,398,363.8,398,362.7z M316.9,298.7c0-8.2,6.7-14.9,14.9-14.9s14.9,6.7,14.9,14.9
	s-6.7,14.9-14.9,14.9S316.9,306.9,316.9,298.7z M329.7,298.7c0,1.2,1,2.1,2.1,2.1c1.2,0,2.1-1,2.1-2.1c0-1.2-1-2.1-2.1-2.1
	C330.7,296.5,329.7,297.5,329.7,298.7z"/>
</svg>
