<?xml version="1.0" encoding="utf-8"?>
<!-- Generator: Adobe Illustrator 24.0.2, SVG Export Plug-In . SVG Version: 6.00 Build 0)  -->
<svg version="1.1" id="Icons" xmlns="http://www.w3.org/2000/svg" xmlns:xlink="http://www.w3.org/1999/xlink" x="0px" y="0px"
	 viewBox="0 0 512 512" style="enable-background:new 0 0 512 512;" xml:space="preserve">
<style type="text/css">
	.st0{fill:#FFFFFF;}
</style>
<path class="st0" d="M417.5,470.7H42.7c-15.9,0-28.8-12.9-28.8-28.8V94c0-3.8,3.1-6.9,6.9-6.9s6.9,3.1,6.9,6.9v347.9
	c0,8.3,6.7,15,15,15h374.8c8.3,0,15-6.7,15-15V348c0-3.8,3.1-6.9,6.9-6.9s6.9,3.1,6.9,6.9v93.9C446.2,457.8,433.4,470.7,417.5,470.7
	z"/>
<path class="st0" d="M439.4,269.6c-3.8,0-6.9-3.1-6.9-6.9V161.8c0-8.3-6.7-15-15-15H62.2c-3.8,0-6.9-3.1-6.9-6.9s3.1-6.9,6.9-6.9
	h355.3c15.9,0,28.8,12.9,28.8,28.8v100.9C446.3,266.5,443.2,269.6,439.4,269.6z"/>
<path class="st0" d="M388.6,146.8H65c-28.3,0-51.2-22.9-51.2-51.2v-3.1c0-28.3,22.9-51.2,51.2-51.2h297.5c18.2,0,32.9,14.8,33,33
	v65.6C395.5,143.7,392.4,146.8,388.6,146.8L388.6,146.8L388.6,146.8z M65,55.1c-20.6,0-37.3,16.7-37.4,37.4v3.1
	c0,20.6,16.7,37.3,37.4,37.4h316.6V74.2c0-10.5-8.5-19.1-19.1-19.1H65z"/>
<path class="st0" d="M463.3,354.9h-73.1c-27.4,0-49.6-22.2-49.5-49.6c0-13.1,5.2-25.7,14.5-35c9.2-9.4,21.9-14.6,35.1-14.6H468
	c2.8,0,5.5-1.1,7.5-3.1s3.1-4.7,3.1-7.5c0-3.8,3.1-6.9,6.9-6.9s6.9,3.1,6.9,6.9V326C492.3,342,479.3,354.9,463.3,354.9L463.3,354.9z
	 M390.2,269.6c-19.7,0-35.7,16.1-35.7,35.8c0,19.7,16,35.7,35.7,35.7h73.1c8.3,0,15.1-6.7,15.2-15.1v-58.8
	c-3.3,1.6-6.9,2.4-10.6,2.4H390.2z"/>
<path class="st0" d="M467.9,269.6h-28.7c-3.8,0-6.9-3.1-6.9-6.9v-35c0-3.8,3.1-6.9,6.9-6.9h28.7c13.5,0,24.4,10.9,24.4,24.4
	C492.3,258.6,481.4,269.6,467.9,269.6L467.9,269.6z M446.1,255.8h21.8c2.8,0,5.5-1.1,7.5-3.1c4.1-4.1,4.2-10.8,0.1-15
	c-2-2-4.7-3.1-7.5-3.1h-21.8v21.2H446.1z"/>
<path class="st0" d="M393.1,326.8c-12.3,0-22.3-10-22.3-22.3s10-22.3,22.3-22.3s22.3,10,22.3,22.3
	C415.4,316.9,405.4,326.8,393.1,326.8z M393.1,296.1c-4.7,0-8.4,3.8-8.4,8.4c0,4.7,3.8,8.4,8.4,8.4s8.4-3.8,8.4-8.4
	S397.8,296.1,393.1,296.1L393.1,296.1z"/>
</svg>
