<?xml version="1.0" encoding="utf-8"?>
<!-- Generator: Adobe Illustrator 24.0.2, SVG Export Plug-In . SVG Version: 6.00 Build 0)  -->
<svg version="1.1" id="Capa_1" xmlns="http://www.w3.org/2000/svg" xmlns:xlink="http://www.w3.org/1999/xlink" x="0px" y="0px"
	 viewBox="0 0 273.1 430.1" style="enable-background:new 0 0 273.1 430.1;" xml:space="preserve">
<style type="text/css">
	.st0{fill:#FFFFFF;}
</style>
<g>
	<g>
		<g>
			<path class="st0" d="M198,75.1H47.8C21.4,75.1,0,96.6,0,122.9v184.2C0,333.5,21.4,355,47.8,355H198c26.4,0,47.8-21.5,47.8-47.8
				V122.9C245.8,96.6,224.3,75.1,198,75.1z M232.1,307.1c0,18.9-15.3,34.2-34.1,34.2H47.8c-18.8,0-34.1-15.3-34.1-34.2V122.9
				c0-18.9,15.3-34.2,34.1-34.2H198c18.8,0,34.1,15.3,34.1,34.2V307.1z"/>
		</g>
	</g>
	<g>
		<g>
			<path class="st0" d="M211.5,80.7l-10-55C198.9,11.3,185.4,0,170.7,0H75.1C60.4,0,46.9,11.3,44.2,25.7l-10,55
				c-0.4,2,0.2,4,1.5,5.6s3.2,2.5,5.2,2.5h163.8c2,0,3.9-0.9,5.2-2.5C211.3,84.7,211.9,82.7,211.5,80.7z M49.1,75.1l8.5-46.9
				C59,20.3,67,13.7,75,13.7h95.7c8,0,16,6.7,17.4,14.5l8.5,46.9C196.6,75.1,49.1,75.1,49.1,75.1z"/>
		</g>
	</g>
	<g>
		<g>
			<path class="st0" d="M210,343.8c-1.3-1.6-3.2-2.5-5.2-2.5H41c-2,0-3.9,0.9-5.2,2.5s-1.8,3.6-1.5,5.6l10,55
				c2.6,14.4,16.2,25.7,30.8,25.7h95.7c14.7,0,28.2-11.3,30.8-25.7l10-55C211.9,347.4,211.3,345.3,210,343.8z M188.1,401.9
				c-1.4,7.9-9.4,14.5-17.4,14.5H75.1c-8,0-16-6.6-17.4-14.5L49.1,355h147.5L188.1,401.9z"/>
		</g>
	</g>
	<g>
		<g>
			<path class="st0" d="M253.6,143.4h-14.7c-3.8,0-6.8,3.1-6.8,6.8v61.4c0,3.8,3.1,6.8,6.8,6.8h14.7c10.7,0,19.5-8.7,19.5-19.5
				v-36.2C273.1,152.1,264.3,143.4,253.6,143.4z M259.4,199c0,3.2-2.6,5.8-5.8,5.8h-7.8V157h7.8c3.2,0,5.8,2.6,5.8,5.8V199z"/>
		</g>
	</g>
	<g>
		<g>
			<path class="st0" d="M52.6,104.4c-2.7-2.7-7-2.7-9.7,0l-17.1,17.1c-2.7,2.7-2.7,7,0,9.7c1.3,1.3,3.1,2,4.8,2s3.5-0.7,4.8-2
				l17.1-17.1C55.3,111.4,55.3,107.1,52.6,104.4z"/>
		</g>
	</g>
	<g>
		<g>
			<path class="st0" d="M79.9,104.4c-2.7-2.7-7-2.7-9.7,0l-37.5,37.5c-2.7,2.7-2.7,7,0,9.7c1.3,1.3,3.1,2,4.8,2s3.5-0.7,4.8-2
				l37.5-37.5C82.6,111.4,82.6,107.1,79.9,104.4z"/>
		</g>
	</g>
</g>
</svg>
